<?xml version="1.0" encoding="UTF-8"?>
<svg width="38px" height="38px" viewBox="0 0 38 38" version="1.1" xmlns="http://www.w3.org/2000/svg" xmlns:xlink="http://www.w3.org/1999/xlink">
    <!-- Generator: Sketch 47.1 (45422) - http://www.bohemiancoding.com/sketch -->
    <title>Group 45</title>
    <desc>Created with Sketch.</desc>
    <defs></defs>
    <g id="Page-1" stroke="none" stroke-width="1" fill="none" fill-rule="evenodd">
        <g id="千库网" transform="translate(-862.000000, -3255.000000)">
            <g id="Group-45" transform="translate(862.000000, 3255.000000)">
                <rect id="Rectangle-11-Copy-2" fill="#805EFF" x="0" y="0" width="38" height="38" rx="15"></rect>
                <g id="Group-39" transform="translate(7.000000, 7.000000)">
                    <rect id="Rectangle-12" fill="#4E2BCC" x="0" y="0" width="24" height="24" rx="4"></rect>
                    <g id="Group-40" transform="translate(4.000000, 4.000000)" fill="#FFFFFF">
                        <path d="M13.8125,13.3615272 L13.8125,11.8901331 C14.8443262,11.5251733 15.5833333,10.5415376 15.5833333,9.38541667 C15.5833333,8.07046631 14.6211249,6.95872928 13.3349843,6.76040704 L12.6852971,6.66022558 L12.7367751,6.00487844 C12.7455746,5.89285436 12.75,5.78006588 12.75,5.66666667 C12.75,3.31945648 10.8472102,1.41666667 8.5,1.41666667 C6.23272937,1.41666667 4.36735348,3.19682946 4.25532645,5.45169561 L4.22905579,5.98046761 L3.71448746,6.10500448 C2.37661028,6.42880018 1.41666667,7.63369913 1.41666667,9.03125 C1.41666667,10.2529285 2.14330629,11.3042846 3.1875,11.7762672 L3.1875,13.2830964 C1.34581998,12.7477478 0,11.0469154 0,9.03125 C0,7.15216297 1.17966507,5.51048416 2.88771429,4.87851136 C3.27224552,2.11298321 5.64735491,0 8.5,0 C11.5752566,0 14.0783579,2.44968845 14.1643808,5.50414235 C15.8230367,6.03176625 17,7.58378727 17,9.38541667 C17,11.3303842 15.6362788,12.9567773 13.8125,13.3615272 Z" id="Path"></path>
                        <polygon id="Path" points="5.72459485 11.9164363 7.53065314 13.7247973 11.8055556 9.44444444 12.8079282 10.4455407 7.53065314 15.7295442 4.72222222 12.9175325"></polygon>
                    </g>
                </g>
            </g>
        </g>
    </g>
</svg>