<?xml version="1.0" encoding="UTF-8"?>
<svg width="38px" height="38px" viewBox="0 0 38 38" version="1.1" xmlns="http://www.w3.org/2000/svg" xmlns:xlink="http://www.w3.org/1999/xlink">
    <!-- Generator: Sketch 47.1 (45422) - http://www.bohemiancoding.com/sketch -->
    <title>Group 46</title>
    <desc>Created with Sketch.</desc>
    <defs></defs>
    <g id="Page-1" stroke="none" stroke-width="1" fill="none" fill-rule="evenodd">
        <g id="千库网" transform="translate(-1197.000000, -3255.000000)">
            <g id="Group-46" transform="translate(1197.000000, 3255.000000)">
                <g id="Group-41">
                    <rect id="Rectangle-11-Copy-3" fill="#69DFC4" x="0" y="0" width="38" height="38" rx="15"></rect>
                    <path d="M21.9166667,29 L16.0833333,29 L16.0833333,24.5291501 C14.0617228,23.4622379 12.75,21.3522867 12.75,19 C12.75,15.5482203 15.5482203,12.75 19,12.75 C22.4517797,12.75 25.25,15.5482203 25.25,19 C25.25,21.3522867 23.9382772,23.4622379 21.9166667,24.5291501 L21.9166667,29 Z M20.25,23.4461561 L20.762589,23.2323963 C22.4566963,22.5259198 23.5833333,20.8671472 23.5833333,19 C23.5833333,16.4686949 21.5313051,14.4166667 19,14.4166667 C16.4686949,14.4166667 14.4166667,16.4686949 14.4166667,19 C14.4166667,20.8671472 15.5433037,22.5259198 17.237411,23.2323963 L17.75,23.4461561 L17.75,27.3333333 L20.25,27.3333333 L20.25,23.4461561 Z M9,19.8333333 L9,18.1666667 L11.5,18.1666667 L11.5,19.8333333 L9,19.8333333 Z M26.5,19.8333333 L26.5,18.1666667 L29,18.1666667 L29,19.8333333 L26.5,19.8333333 Z M11.400696,12.3708739 L12.5792073,11.1923626 L14.3469742,12.9601296 L13.1684629,14.1386409 L11.400696,12.3708739 Z M24.1917313,25.1619093 L25.3702426,23.983398 L27.1380095,25.7511649 L25.9594983,26.9296762 L24.1917313,25.1619093 Z M25.8374594,11.1923626 L27.0159707,12.3708739 L25.2482038,14.1386409 L24.0696925,12.9601296 L25.8374594,11.1923626 Z M13.0464241,23.983398 L14.2249354,25.1619093 L12.4571684,26.9296762 L11.2786571,25.7511649 L13.0464241,23.983398 Z M18.1666667,9 L19.8333333,9 L19.8333333,11.5 L18.1666667,11.5 L18.1666667,9 Z" id="Shape" fill="#36AC91" fill-rule="nonzero"></path>
                    <circle id="Oval-3" fill="#FFFFFF" cx="19" cy="19" r="4"></circle>
                </g>
            </g>
        </g>
    </g>
</svg>