<?xml version="1.0" encoding="UTF-8"?>
<svg width="135px" height="64px" viewBox="0 0 135 64" version="1.1" xmlns="http://www.w3.org/2000/svg" xmlns:xlink="http://www.w3.org/1999/xlink">
    <!-- Generator: Sketch 48.2 (47327) - http://www.bohemiancoding.com/sketch -->
    <title>logo</title>
    <desc>Created with Sketch.</desc>
    <defs>
        <polygon id="path-1" points="49.2244464 0.0970954802 1.50501672e-05 0.0970954802 1.50501672e-05 42.7310359 49.2244464 42.7310359"></polygon>
    </defs>
    <g id="首页1440-导航-final" stroke="none" stroke-width="1" fill="none" fill-rule="evenodd" transform="translate(-893.000000, -63.000000)">
        <g id="logo" transform="translate(893.000000, 63.000000)">
            <g id="Group-22-Copy">
                <g id="Group-3">
                    <g id="logo">
                        <polygon id="Fill-1" fill="#008AFF" fill-rule="nonzero" points="132.75 25.1380688 132.717157 29.2430769 129.018829 29.2430769 129.019129 29.2367638 129.012831 29.2430769 113.897539 14.8074253 98.5536992 29.2430769 98.5484503 29.2382319 98.5484503 29.2430769 95.625 29.2430769 95.6573928 25.1380688 96.7918907 25.1380688 110.857565 11.9045562 110.854716 11.9010326 113.93998 8.99786982 113.94358 9.00139343 113.947029 8.99786982 116.985953 11.9010326 116.982804 11.9045562 130.839875 25.1380688"></polygon>
                        <g id="Group-13">
                            <path d="M131.300639,17.5025922 L132.941407,13.3380597 L128.633899,13.3380597 L128.633599,13.3444633 L128.627578,13.3385064 L113.229451,27.9807134 L98.0602374,13.3385064 L98.0551204,13.3437187 L98.0551204,13.3380597 L91.892679,13.3380597 C91.892679,13.3380597 92.2993344,15.3155611 93.2161906,16.2425847 C94.3092843,17.3465246 95.8427458,17.5025922 95.8427458,17.5025922 L96.2269766,17.5025922 L110.132729,30.9255955 L110.129117,30.928425 L113.179635,33.8733071 L113.183247,33.8704776 L113.186407,33.8733071 L116.283131,30.928425 L116.279819,30.9255955 L130.396425,17.5025922 L131.300639,17.5025922 Z" id="Fill-2" fill="#008AFF" fill-rule="nonzero"></path>
                            <g id="Group-6">
                                <g id="Fill-4-Clipped">
                                    <g>
                                        <mask id="mask-2" fill="white">
                                            <use xlink:href="#path-1"></use>
                                        </mask>
                                        <g id="path-1"></g>
                                        <path d="M39.6301153,3.88778047 L25.8462692,7.02089674 L25.8462692,20.5649716 L49.2244464,20.5649716 L49.2244464,23.9429115 L25.8462692,23.9429115 L25.8462692,36.7543027 C25.8462692,36.7543027 25.9868378,39.896652 24.0939783,41.2862193 C22.1555167,42.7091447 18.8238612,42.7310359 18.8238612,42.7310359 L18.8238612,23.9429115 L1.50501672e-05,23.9429115 L1.50501672e-05,20.5649716 L18.8238612,20.5649716 L18.8238612,8.32200597 L3.64140301,11.4939903 L3.64140301,8.01969948 L39.6301153,0.0970359125 L39.6301153,3.88778047 Z" id="Fill-4" fill="#008BFF" fill-rule="nonzero" mask="url(#mask-2)"></path>
                                    </g>
                                </g>
                            </g>
                            <path d="M52.7460803,6.49208379 L52.7460803,31.5839684 L51.6979866,38.2621121 C51.6979866,38.2621121 51.2222508,40.5337294 49.5944247,41.5121302 C47.7224849,42.6369187 44.2559799,42.6348339 44.2559799,42.6348339 L45.9905116,31.0052674 L45.9905116,3.11399501 L64.920311,3.11399501 L64.9216656,0.336349466 C64.9216656,0.336349466 67.0718829,0.276037089 68.8023512,0.986829616 C70.3921004,1.63954355 71.0762809,3.11399501 71.0762809,3.11399501 L87.0711472,3.11399501 L87.0711472,6.49208379 L52.7460803,6.49208379 Z" id="Fill-7" fill="#008AFF" fill-rule="nonzero"></path>
                            <polygon id="Fill-9" fill="#008AFF" fill-rule="nonzero" points="67.8090702 23.4311498 67.8090702 20.0782285 74.3819298 20.0782285 74.3819298 23.4311498 85.1542374 23.4311498 85.1542374 26.8092386 74.3819298 26.8092386 74.3819298 30.8905249 91.9334348 30.8905249 91.9334348 34.2678692 74.3819298 34.2678692 74.3819298 42.6347594 67.8090702 42.6347594 67.8090702 34.2678692 54.1153746 34.2678692 54.1153746 30.8905249 67.8090702 30.8905249 67.8090702 26.8092386 54.0241705 26.8092386 59.8666455 15.3707357 54.2982341 15.3707357 54.2982341 11.9930938 60.9622976 11.9930938 62.4227659 8.42215429 69.6348061 8.42215429 68.2655418 11.9930938 86.4322976 11.9930938 86.4322976 15.3707357 66.804923 15.3707357 62.6054749 23.4311498"></polygon>
                            <path d="M130.525856,41.6119062 C128.694401,40.0714834 128.450438,37.6250347 128.450438,37.6250347 L128.450438,4.75493841 L98.0197525,4.75493841 L98.0197525,37.8965149 C98.0197525,37.8965149 98.245505,40.2973943 96.4236823,41.6019286 C95.0175451,42.6092198 91.582495,42.7310359 91.582495,42.7310359 L91.582495,1.37684965 L134.887696,1.37684965 L134.887696,42.7310359 C134.887696,42.7310359 132.07512,42.9143556 130.525856,41.6119062" id="Fill-11" fill="#008AFF" fill-rule="nonzero"></path>
                        </g>
                    </g>
                </g>
            </g>
            <g id="Group-24" transform="translate(11.000000, 44.000000)" fill="#9B9B9B">
                <path d="M9.495802,12.6062404 L8.85333556,11.8293042 C9.73984407,10.4148749 10.3424616,8.4974555 10.6612062,6.07698844 L11.6622586,6.2562814 C11.5526901,7.00333914 11.4281824,7.66572039 11.2887316,8.24344504 L14.5160049,8.24344504 L14.5160049,9.2444974 L13.8137741,9.2444974 C13.7639703,11.943866 13.3456242,14.175045 12.5587234,15.9381012 C13.1563696,17.073629 13.8934555,18.0497698 14.7700032,18.8665529 L14.0229492,19.5837248 C13.2260877,18.7868632 12.5587261,17.9103286 12.0208445,16.9540947 C11.3634337,18.0497794 10.5466628,18.9362746 9.5705074,19.6136069 L8.94298204,18.7918475 C10.0187452,18.0846329 10.8703782,17.123433 11.4979067,15.9082191 C10.8703782,14.5137113 10.4520322,12.9747955 10.242856,11.2914254 C9.96395445,11.8591892 9.71493894,12.2974565 9.495802,12.6062404 Z M12.8724861,9.2444974 L11.0197922,9.2444974 L10.9301457,9.543319 C11.0397141,11.4956299 11.3982965,13.2287778 12.0059034,14.7428148 C12.5537458,13.2287778 12.8426038,11.3960237 12.8724861,9.2444974 Z M4.8640672,6.43557436 C4.51544026,7.56114135 4.11701544,8.57712463 3.6687808,9.48355468 L3.6687808,19.6584302 L2.6229052,19.6584302 L2.6229052,11.3063664 C2.15474902,12.0036203 1.68659986,12.6261591 1.21844368,13.1740014 L0.874798841,12.0235383 C2.26930661,10.2405605 3.27532927,8.22353486 3.892897,5.97240088 L4.8640672,6.43557436 Z M9.06251068,12.725769 L9.06251068,17.8953827 L5.85017848,17.8953827 L5.85017848,18.8665529 L4.83418504,18.8665529 L4.83418504,12.725769 L6.4328806,12.725769 L6.4328806,9.79731736 L4.4905402,9.79731736 L4.4905402,8.796265 L6.4328806,8.796265 L6.4328806,6.13675276 L7.44887404,6.13675276 L7.44887404,8.796265 L9.36133228,8.796265 L9.36133228,9.79731736 L7.44887404,9.79731736 L7.44887404,12.725769 L9.06251068,12.725769 Z M5.85017848,16.9540947 L8.04651724,16.9540947 L8.04651724,13.6819982 L5.85017848,13.6819982 L5.85017848,16.9540947 Z M19.7731306,6.15169384 C20.7592468,6.91867311 21.5909586,7.67568026 22.268291,8.422738 L21.536178,9.169792 C20.9086495,8.42273426 20.0719574,7.65078618 19.0260766,6.8539246 L19.7731306,6.15169384 Z M18.0997296,10.5294303 L21.2224154,10.5294303 L21.2224154,17.1632698 C21.8399831,16.6453098 22.4176991,16.1323378 22.9555806,15.6243386 L23.2544022,16.7598606 C22.3380114,17.6164868 21.3419494,18.3983955 20.2661862,19.1056102 L19.847836,18.1493811 C20.0669729,17.9302441 20.1765398,17.7061302 20.1765398,17.4770325 L20.1765398,11.5603648 L18.0997296,11.5603648 L18.0997296,10.5294303 Z M23.403813,12.2775366 L30.5157671,12.2775366 L30.5157671,13.2636479 C30.0376502,14.6780772 29.2557415,15.8882926 28.1700176,16.8943304 C29.1660945,17.5816235 30.4061918,18.1991819 31.8903465,18.7470243 L31.3076444,19.6733712 C29.7039604,19.0259212 28.3991192,18.3137368 27.3930814,17.5367968 C26.2276713,18.4133445 24.7534995,19.1255289 22.9705217,19.6733712 L22.3728785,18.7619654 C24.0363271,18.2639269 25.4258336,17.6214669 26.5414398,16.834566 C25.4158729,15.798646 24.6439248,14.6282731 24.2255724,13.3234122 L23.403813,13.3234122 L23.403813,12.2775366 Z M25.2415659,13.3234122 C25.6300359,14.4091361 26.3173187,15.3753163 27.3034349,16.2219818 C28.2696296,15.3753163 28.9867943,14.4091361 29.4549504,13.3234122 L25.2415659,13.3234122 Z M24.5542762,6.51027976 L29.5744791,6.51027976 L29.5744791,9.73755304 C29.5744791,10.1160623 29.7687112,10.3053141 30.1571812,10.3053141 L31.5317606,10.3053141 L31.5317606,11.2914254 L29.8882418,11.2914254 C28.9718509,11.2914254 28.5136624,10.8481778 28.5136624,9.96166924 L28.5136624,7.5262732 L25.6150929,7.5262732 L25.6150929,8.049211 C25.6150929,9.62301263 24.8481251,10.8481689 23.3141666,11.7247167 L22.5969947,10.9029573 C23.9018556,10.2555072 24.5542762,9.34411048 24.5542762,8.16873964 L24.5542762,6.51027976 Z M39.8518077,10.4099016 L43.9008404,10.4099016 L43.9008404,5.91263656 L45.0064803,5.91263656 L45.0064803,10.4099016 L48.8463379,10.4099016 L48.8463379,11.4856594 L45.0064803,11.4856594 L45.0064803,19.6584302 L43.9008404,19.6584302 L43.9008404,11.4856594 L39.8518077,11.4856594 L39.8518077,10.4099016 Z M36.923356,6.07698844 C37.9493153,6.84396771 38.8009483,7.61093549 39.4782807,8.37791476 L38.7461678,9.12496876 C38.1286,8.39783256 37.2719867,7.62588448 36.176302,6.80910136 L36.923356,6.07698844 Z M35.1752497,10.4995481 L38.4025229,10.4995481 L38.4025229,17.1483287 C39.0997768,16.5606433 39.6874534,16.042691 40.1655704,15.5944564 L40.4345098,16.7000963 C39.5380405,17.5666833 38.5419785,18.3635329 37.4462938,19.0906691 L37.0279436,18.1194989 C37.2570413,17.9402051 37.3715884,17.731032 37.3715884,17.4919736 L37.3715884,11.5304826 L35.1752497,11.5304826 L35.1752497,10.4995481 Z M74.028461,6.7045138 L86.728379,6.7045138 L86.728379,7.76533048 L81.8575869,7.76533048 C81.5986069,8.36297667 81.2898277,8.95563358 80.93124,9.543319 L80.93124,19.6584302 L79.8256,19.6584302 L79.8256,11.1270735 C78.4211315,12.8702082 76.583397,14.424065 74.3123415,15.7886904 L73.6101108,14.8474024 C76.9967725,12.8950915 79.3474789,10.5344245 80.6623005,7.76533048 L74.028461,7.76533048 L74.028461,6.7045138 Z M82.813816,10.7236643 C84.5171077,12.0683682 85.9564173,13.4279929 87.1317882,14.8025792 L86.3100288,15.6392796 C85.2641479,14.324458 83.8397792,12.9299712 82.0368799,11.4557772 L82.813816,10.7236643 Z M95.4966585,12.9200031 C95.0384631,13.1789831 94.490629,13.4529002 93.8531397,13.7417625 L93.8531397,18.1643222 C93.8531397,19.0408699 93.4098921,19.4791372 92.5233836,19.4791372 L91.2384507,19.4791372 L91.0143345,18.4332616 C91.5322945,18.4731047 91.9107981,18.4930259 92.1498566,18.4930259 C92.5582482,18.4930259 92.7624409,18.2938135 92.7624409,17.8953827 L92.7624409,14.219877 C91.9855008,14.5187001 91.3480211,14.7477944 90.8499826,14.9071667 L90.5810432,13.831409 C91.3380617,13.6321936 92.065187,13.4030993 92.7624409,13.1441193 L92.7624409,9.70767088 L90.8499826,9.70767088 L90.8499826,8.67673636 L92.7624409,8.67673636 L92.7624409,5.97240088 L93.8531397,5.97240088 L93.8531397,8.67673636 L95.407012,8.67673636 L95.407012,9.70767088 L93.8531397,9.70767088 L93.8531397,12.6809458 C94.4507859,12.3920835 94.99862,12.1082058 95.4966585,11.8293042 L95.4966585,12.9200031 Z M97.3045292,18.1792632 L104.147544,18.1792632 L104.147544,19.2101978 L96.2287714,19.2101978 L96.2287714,6.555103 L103.998133,6.555103 L103.998133,7.6009786 L97.3045292,7.6009786 L97.3045292,18.1792632 Z M98.753814,9.00544012 C99.5008717,9.94175248 100.262859,10.9627161 101.039799,12.0683615 C101.507955,10.9726768 101.876498,9.79732364 102.145439,8.54226664 L103.13155,8.7215596 C102.772963,10.3451651 102.294853,11.789455 101.697207,13.0544728 C102.364578,14.0704713 103.016999,15.1511986 103.654488,16.2966872 L102.907434,17.0437412 C102.429317,16.1173896 101.851601,15.1263078 101.174269,14.0704662 C100.506897,15.2458371 99.6951068,16.2966825 98.7388729,17.2230341 L98.0814654,16.4162158 C99.0775423,15.4400604 99.8943132,14.3394118 100.531802,13.1142371 C99.8046663,12.0285132 98.9679742,10.8880222 98.021701,9.6927298 L98.753814,9.00544012 Z M114.051345,7.98944668 C113.911895,8.32811285 113.782407,8.60202991 113.662877,8.81120608 L117.607322,8.81120608 L117.607322,9.55826008 C117.179009,10.3650824 116.54651,11.0623259 115.709805,11.6500113 C116.755686,12.1480498 117.896177,12.5414943 119.131313,12.8303566 L118.563552,13.6371749 C117.109279,13.2487049 115.864202,12.7656148 114.828282,12.1878902 C113.672832,12.8054579 112.248464,13.2985086 110.555133,13.6670571 L110.077018,12.8004744 C111.610977,12.5315337 112.905857,12.1480498 113.961699,11.6500113 C113.364053,11.2515805 112.861041,10.8332344 112.45265,10.3949606 C112.004415,10.8133129 111.496424,11.2017771 110.92866,11.5603648 L110.331017,10.7834286 C111.695642,9.97660629 112.616999,9.0054458 113.095116,7.86991804 L114.051345,7.98944668 Z M116.531565,9.6180244 L113.13994,9.6180244 C113.080175,9.67778902 113.035352,9.73755274 113.00547,9.79731736 C113.52343,10.2953559 114.131028,10.7585247 114.828282,11.1868378 C115.565379,10.7386032 116.133134,10.2156706 116.531565,9.6180244 Z M111.869948,15.2059883 C113.84218,15.5745368 115.749639,16.10743 117.592381,16.8046839 L117.233795,17.6712665 C115.381092,16.9540911 113.453712,16.4012767 111.451598,16.0128066 L111.869948,15.2059883 Z M113.42382,13.1142371 C114.559348,13.4927464 115.630115,13.9608955 116.636152,14.5186986 L116.128156,15.2956348 C115.122118,14.6880278 114.056331,14.1999574 112.930764,13.831409 L113.42382,13.1142371 Z M120.625421,6.58498516 L120.625421,19.628548 L119.579545,19.628548 L119.579545,19.0159637 L109.479375,19.0159637 L109.479375,19.628548 L108.433499,19.628548 L108.433499,6.58498516 L120.625421,6.58498516 Z M109.479375,18.0597346 L119.579545,18.0597346 L119.579545,7.54121428 L109.479375,7.54121428 L109.479375,18.0597346 Z" id="做设计-不抠图"></path>
                <path d="M62.4567999,14.4760098 C62.6360937,14.6353822 62.7257393,14.8445552 62.7257393,15.1035352 C62.7257393,15.3625152 62.6360937,15.5766686 62.4567999,15.7460016 C62.2675453,15.9153347 62.0533919,16 61.8143334,16 C61.575275,16 61.3611216,15.9153347 61.171867,15.7460016 C60.9925731,15.5667078 60.9029276,15.3525544 60.9029276,15.1035352 C60.9029276,14.8445552 60.9925731,14.6353822 61.171867,14.4760098 C61.3412001,14.3066768 61.5553534,14.2220115 61.8143334,14.2220115 C62.0733135,14.2220115 62.2874668,14.3066768 62.4567999,14.4760098 Z" id="."></path>
            </g>
        </g>
    </g>
</svg>