<?xml version="1.0" encoding="UTF-8"?>
<svg width="14px" height="16px" viewBox="0 0 14 16" version="1.1" xmlns="http://www.w3.org/2000/svg" xmlns:xlink="http://www.w3.org/1999/xlink">
    <!-- Generator: Sketch 48.2 (47327) - http://www.bohemiancoding.com/sketch -->
    <title>01</title>
    <desc>Created with Sketch.</desc>
    <defs></defs>
    <g id="首页1440-导航-final--copy" stroke="none" stroke-width="1" fill="none" fill-rule="evenodd" transform="translate(-242.000000, -13.000000)">
        <g id="Group-42" transform="translate(243.000000, 11.000000)">
            <g id="Group-37">
                <g id="01" transform="translate(0.000000, 3.000000)">
                    <path d="M9.96521739,0 C8.86956522,0 7.9826087,0.71686747 7.9826087,1.60240964 L7.9826087,2.46987952 C7.9826087,2.84939759 7.56521739,3.18674699 7.09565217,3.18674699 L4.85217391,3.18674699 C4.3826087,3.18674699 3.96521739,2.84939759 3.96521739,2.46987952 L3.96521739,1.64457831 C3.96521739,0.759036145 3.07826087,0.0421686747 1.9826087,0.0421686747 C0.886956522,0.0421686747 0,0.759036145 0,1.64457831 L0,5.94578313 L0,7.21084337 L0,9.57228916 C0,12.0180723 2.45217391,14 5.47826087,14 L6.52173913,14 C9.54782609,14 12,12.0180723 12,9.57228916 L12,7.21084337 L12,5.94578313 L12,1.60240964 C11.9478261,0.71686747 11.0608696,0 9.96521739,0 Z" id="Shape" stroke="#008AFF"></path>
                    <path d="M4.625,10.2672945 C4.625,10.1337101 4.625,8.61975316 4.625,5.72542373 C4.625,5.52504708 4.91071429,5.45825486 5.10119048,5.52504708 L8.23214286,7.79598248 C8.42261905,7.86277469 8.42261905,8.06315135 8.23214286,8.12994356 L5.10119048,10.400879 C4.91071429,10.6012556 4.625,10.4676712 4.625,10.2672945 Z" id="Shape" fill="#008AFF"></path>
                </g>
            </g>
        </g>
    </g>
</svg>