<?xml version="1.0" encoding="UTF-8"?>
<svg width="16px" height="16px" viewBox="0 0 16 16" version="1.1" xmlns="http://www.w3.org/2000/svg" xmlns:xlink="http://www.w3.org/1999/xlink">
    <!-- Generator: Sketch 48.2 (47327) - http://www.bohemiancoding.com/sketch -->
    <title>02</title>
    <desc>Created with Sketch.</desc>
    <defs></defs>
    <g id="首页1440-导航-final--copy" stroke="none" stroke-width="1" fill="none" fill-rule="evenodd" transform="translate(-344.000000, -13.000000)">
        <g id="Group-42" transform="translate(243.000000, 11.000000)" stroke="#008AFF">
            <g id="Group-35" transform="translate(102.000000, 0.000000)">
                <g id="02" transform="translate(0.000000, 3.000000)">
                    <path d="M12.2262228,14 L1.70720109,14 C1.24116848,14 0.875,13.6424149 0.875,13.1873065 L0.875,3.5 L13.125,3.5 L13.125,13.1547988 C13.091712,13.6099071 12.6922554,14 12.2262228,14 Z" id="Shape"></path>
                    <path d="M2.44112319,7.875 L1.93387681,7.875 C0.855978261,7.875 0,6.96634615 0,5.82211538 L0,4.71153846 C0,4.50961538 0.158514493,4.375 0.317028986,4.375 L4.05797101,4.375 C4.24818841,4.375 4.375,4.54326923 4.375,4.71153846 L4.375,5.82211538 C4.375,6.93269231 3.51902174,7.875 2.44112319,7.875 Z" id="Shape" fill="#FFFFFF" fill-rule="nonzero"></path>
                    <path d="M7.30434783,7.875 L6.69565217,7.875 C5.40217391,7.875 4.375,6.96634615 4.375,5.82211538 L4.375,4.71153846 C4.375,4.50961538 4.56521739,4.375 4.75543478,4.375 L9.24456522,4.375 C9.47282609,4.375 9.625,4.54326923 9.625,4.71153846 L9.625,5.82211538 C9.625,6.93269231 8.59782609,7.875 7.30434783,7.875 Z" id="Shape" fill="#FFFFFF" fill-rule="nonzero"></path>
                    <path d="M12.0656637,7.875 L11.5585128,7.875 C10.4808171,7.875 9.625,6.96634615 9.625,5.82211538 L9.625,4.71153846 C9.625,4.50961538 9.78348465,4.375 9.94196931,4.375 L13.6822072,4.375 C13.8723888,4.375 13.9991765,4.54326923 13.9991765,4.71153846 L13.9991765,5.82211538 C14.0308734,6.93269231 13.1433593,7.875 12.0656637,7.875 Z" id="Shape" fill="#FFFFFF" fill-rule="nonzero"></path>
                    <path d="M13.9522719,4.375 L0.0477281415,4.375 C0.013979249,4.375 -0.0197696435,4.3432971 0.013979249,4.3115942 L1.83641944,0.0317028986 C1.83641944,0 1.87016834,0 1.90391723,0 L12.1298317,0 C12.1635806,0 12.1635806,0 12.1635806,0.0317028986 L13.9860208,4.3115942 C14.0197696,4.3432971 13.9860208,4.375 13.9522719,4.375 Z" id="Shape" fill="#FFFFFF" fill-rule="nonzero"></path>
                </g>
            </g>
        </g>
    </g>
</svg>